<svg width="32" height="32" viewBox="0 0 32 32" fill="none" xmlns="http://www.w3.org/2000/svg">
<path d="M7.02538 13C7.02372 11.814 7.25682 10.6394 7.71123 9.54394C8.16564 8.44846 8.83238 7.45374 9.67302 6.61714C10.5137 5.78054 11.5116 5.1186 12.6092 4.66946C13.7069 4.22033 14.8826 3.99289 16.0685 4.00025C21.0173 4.03704 24.9756 8.15042 24.9756 13.113V14C24.9756 18.477 25.9123 21.0749 26.7372 22.4948C26.8261 22.6465 26.8734 22.819 26.8743 22.9948C26.8753 23.1706 26.8298 23.3436 26.7426 23.4962C26.6553 23.6489 26.5294 23.7759 26.3774 23.8643C26.2255 23.9527 26.0529 23.9995 25.877 24H6.12295C5.9471 23.9995 5.77448 23.9527 5.62251 23.8643C5.47053 23.7758 5.34457 23.6488 5.25734 23.4961C5.17011 23.3434 5.12468 23.1704 5.12566 22.9946C5.12663 22.8187 5.17396 22.6463 5.26287 22.4946C6.08828 21.0746 7.02537 18.4767 7.02537 14L7.02538 13Z" fill="white" stroke="white" stroke-width="2" stroke-linecap="round" stroke-linejoin="round"/>
<path d="M13 25V25.6C13 26.2365 13.3161 26.847 13.8787 27.2971C14.4413 27.7471 15.2044 28 16 28C16.7956 28 17.5587 27.7471 18.1213 27.2971C18.6839 26.847 19 26.2365 19 25.6V25" fill="white"/>
<path d="M13 25V25.6C13 26.2365 13.3161 26.847 13.8787 27.2971C14.4413 27.7471 15.2044 28 16 28C16.7956 28 17.5587 27.7471 18.1213 27.2971C18.6839 26.847 19 26.2365 19 25.6V25" stroke="white" stroke-width="2" stroke-linecap="round" stroke-linejoin="round"/>
<path d="M18 5V4.6C18 4.17565 17.7893 3.76869 17.4142 3.46863C17.0391 3.16857 16.5304 3 16 3C15.4696 3 14.9609 3.16857 14.5858 3.46863C14.2107 3.76869 14 4.17565 14 4.6V5" fill="white"/>
<path d="M18 5V4.6C18 4.17565 17.7893 3.76869 17.4142 3.46863C17.0391 3.16857 16.5304 3 16 3C15.4696 3 14.9609 3.16857 14.5858 3.46863C14.2107 3.76869 14 4.17565 14 4.6V5" stroke="white" stroke-width="2" stroke-linecap="round" stroke-linejoin="round"/>
</svg>
