<svg width="11" height="7" viewBox="0 0 11 7" fill="none" xmlns="http://www.w3.org/2000/svg">
<path d="M9.7266 0H0.5C0.367392 0 0.240215 0.0526784 0.146447 0.146447C0.0526784 0.240215 0 0.367392 0 0.5C0 0.632608 0.0526784 0.759785 0.146447 0.853553C0.240215 0.947322 0.367392 1 0.5 1H9.7266C9.85921 1 9.98639 0.947322 10.0802 0.853553C10.1739 0.759785 10.2266 0.632608 10.2266 0.5C10.2266 0.367392 10.1739 0.240215 10.0802 0.146447C9.98639 0.0526784 9.85921 0 9.7266 0V0Z" fill="white"/>
<path d="M9.7266 3H0.5C0.367392 3 0.240215 3.05268 0.146447 3.14645C0.0526784 3.24021 0 3.36739 0 3.5C0 3.63261 0.0526784 3.75979 0.146447 3.85355C0.240215 3.94732 0.367392 4 0.5 4H9.7266C9.85921 4 9.98639 3.94732 10.0802 3.85355C10.1739 3.75979 10.2266 3.63261 10.2266 3.5C10.2266 3.36739 10.1739 3.24021 10.0802 3.14645C9.98639 3.05268 9.85921 3 9.7266 3Z" fill="white"/>
<path d="M10.2266 6.5C10.2266 6.36739 10.1739 6.24021 10.0802 6.14645C9.98639 6.05268 9.85921 6 9.7266 6H0.5C0.367392 6 0.240215 6.05268 0.146447 6.14645C0.0526784 6.24021 0 6.36739 0 6.5C0 6.63261 0.0526784 6.75979 0.146447 6.85355C0.240215 6.94732 0.367392 7 0.5 7H9.7266C9.85921 7 9.98639 6.94732 10.0802 6.85355C10.1739 6.75979 10.2266 6.63261 10.2266 6.5Z" fill="white"/>
</svg>
