<svg width="41" height="32" viewBox="0 0 41 32" fill="none" xmlns="http://www.w3.org/2000/svg">
<path d="M36.9438 8.34319C36.629 6.79595 34.8166 5.4439 32.8109 5.26458C24.6256 4.56838 16.3676 4.56857 8.18236 5.26513C6.18385 5.44384 4.37145 6.79577 4.05505 8.34881C3.06013 13.422 3.06053 18.5839 4.05622 23.657C4.37138 25.2043 6.18385 26.5562 8.18909 26.7354C12.2776 27.0835 16.3873 27.2578 20.5 27.2576C24.6127 27.2578 28.7224 27.0835 32.8109 26.7354L32.8175 26.7349C34.8163 26.5563 36.6288 25.2043 36.9449 23.6512C37.9399 18.578 37.9395 13.4162 36.9438 8.34319ZM26.3357 16.832L18.6482 20.832C18.4552 20.9324 18.231 20.9901 17.9994 20.9988C17.7677 21.0075 17.5374 20.967 17.3329 20.8816C17.1285 20.7962 16.9575 20.6691 16.8384 20.5139C16.7192 20.3586 16.6563 20.181 16.6563 20V12C16.6563 11.819 16.7192 11.6414 16.8384 11.4861C16.9575 11.3309 17.1285 11.2037 17.3329 11.1183C17.5374 11.0329 17.7677 10.9924 17.9994 11.0012C18.231 11.0099 18.4552 11.0676 18.6482 11.168L26.3357 15.168C26.5112 15.2593 26.6551 15.383 26.7546 15.5281C26.8542 15.6733 26.9062 15.8354 26.9062 16C26.9062 16.1646 26.8542 16.3267 26.7546 16.4718C26.6551 16.617 26.5112 16.7407 26.3357 16.832Z" fill="#FF0000"/>
</svg>
